<svg xmlns="http://www.w3.org/2000/svg" viewBox="0 0 64 64"><g transform="matrix(1.28,0,0,1.28,0,0)"><defs><style>.h{fill:none;stroke:#45413c;stroke-width:1.25px;stroke-linecap:round;stroke-linejoin:round}.f{fill:#ffffff}.g{fill:#45413c}</style></defs><ellipse cx="25" cy="25" rx="23.5" ry="21.5" style="fill:#ffe500"></ellipse><path d="M25 42.5C11.7 42.5 2.594 33.933 1.6 23c-.06.659-.1 1.325-.1 2 0 11.874 9.4 21.5 23.5 21.5S48.5 36.874 48.5 25c0-.676-.039-1.342-.1-2-.994 10.933-10.1 19.5-23.4 19.5z" style="fill:#f2c100"></path><ellipse cx="25" cy="6.002" rx="6.5" ry="1.001" style="fill:#fffacf"></ellipse><ellipse cx="25" cy="25" rx="23.5" ry="21.5" style="stroke-miterlimit:10;stroke:#45413c;stroke-width:1.25px;fill:none"></ellipse><path d="M24.992 34.266c-7.5 0-3.984-7.5 0-7.5 3.953 0 7.562 7.5 0 7.5z" style="stroke-linecap:round;stroke-linejoin:round;fill:#ff6242;stroke:#45413c;stroke-width:1.25px"></path><circle class="f" cx="17.408" cy="19.001" r="4.625"></circle><path class="g" d="M17.408 15a4 4 0 1 1-4 4 4 4 0 0 1 4-4m0-1.25a5.25 5.25 0 1 0 5.25 5.25 5.256 5.256 0 0 0-5.25-5.25z"></path><path class="h" d="M15.973 11.168c-2.756.12-5.323 2.424-5.591 4.308"></path><circle class="g" cx="17.408" cy="19.001" r="1.75"></circle><circle class="f" cx="31.825" cy="19.001" r="4.625"></circle><path class="g" d="M31.825 15a4 4 0 1 1-4 4 4 4 0 0 1 4-4m0-1.25a5.25 5.25 0 1 0 5.25 5.25 5.256 5.256 0 0 0-5.25-5.25z"></path><path class="h" d="M33.26 11.168c2.756.12 5.324 2.424 5.591 4.308"></path><circle class="g" cx="31.825" cy="19.001" r="1.75"></circle></g></svg>