<svg xmlns="http://www.w3.org/2000/svg" viewBox="0 0 64 64"><g transform="matrix(1.28,0,0,1.28,0,0)"><defs><style>.c{fill:none;stroke:#45413c;stroke-linecap:round;stroke-linejoin:round;stroke-width:1.25px}.e{fill:#45413c}</style></defs><ellipse cx="25" cy="30.375" rx="20.494" ry="18.738" style="fill:#ffe500"></ellipse><path d="M25 45.113c-11.493 0-19.4-7.33-20.386-16.738a19.151 19.151 0 0 0-.108 2c0 10.348 8.2 18.738 20.494 18.738s20.494-8.39 20.494-18.738a19.151 19.151 0 0 0-.108-2C44.4 37.783 36.493 45.113 25 45.113z" style="fill:#f2c100"></path><ellipse class="c" cx="25" cy="30.375" rx="20.494" ry="18.738"></ellipse><path d="M32.71 33.761c-1.081-1.426-3.274-2.871-7.71-2.88-4.436.009-6.629 1.454-7.71 2.88-.848 1.118.588 2.423 2.351 2.18A42.333 42.333 0 0 1 25 35.525a42.333 42.333 0 0 1 5.359.416c1.763.243 3.199-1.062 2.351-2.18z" style="fill:#ff6242;stroke-linecap:round;stroke-linejoin:round;stroke-width:1.25px;stroke:#45413c"></path><ellipse class="c" cx="25" cy="15.376" rx="10.192" ry="3.661"></ellipse><circle class="e" cx="32.583" cy="25.628" r="1.75"></circle><circle class="e" cx="17.417" cy="25.628" r="1.75"></circle><path d="M32.16 3.415c-.145 0-.283.028-.425.042v-.042a1.679 1.679 0 0 0-2.925-1.127 5.881 5.881 0 0 0-7.62 0 1.679 1.679 0 0 0-2.929 1.127v.042c-.142-.014-.28-.042-.425-.042a4.212 4.212 0 0 0 0 8.424c.019 0 .037-.006.057-.006a1.682 1.682 0 0 0 1.631 1.267 1.658 1.658 0 0 0 .382-.047 8.391 8.391 0 0 1 .132 1.441 13.06 13.06 0 0 1-.677 3.954l-.009.019a26.992 26.992 0 0 0 5.648.57 26.963 26.963 0 0 0 5.628-.564l-.016-.024a13.033 13.033 0 0 1-.677-3.953 8.65 8.65 0 0 1 .216-1.864 1.644 1.644 0 0 0 .325.049 1.677 1.677 0 0 0 1.463-.865c.075 0 .146.023.221.023a4.212 4.212 0 1 0 0-8.424z" style="fill:#f0f0f0"></path><path d="M17.84 6.363a4 4 0 0 1 .425.043v-.043a1.679 1.679 0 0 1 2.925-1.127 5.884 5.884 0 0 1 7.62 0 1.679 1.679 0 0 1 2.929 1.127v.043a4 4 0 0 1 .425-.043A4.2 4.2 0 0 1 36.093 9.1a4.184 4.184 0 0 0-3.933-5.685c-.145 0-.283.028-.425.042v-.042a1.679 1.679 0 0 0-2.925-1.127 5.881 5.881 0 0 0-7.62 0 1.679 1.679 0 0 0-2.929 1.127v.042c-.142-.014-.28-.042-.425-.042A4.184 4.184 0 0 0 13.907 9.1a4.2 4.2 0 0 1 3.933-2.737z" style="fill:#ffffff"></path><path class="c" d="M19.524 13.1a1.675 1.675 0 0 0 1.2-.5 6.722 6.722 0 0 0 1.752.919m5.051.003a6.555 6.555 0 0 0 2.016-1.122 1.667 1.667 0 0 0 .933.283"></path><path d="M27.527 19a10.291 10.291 0 0 1-.421-2.948M22.473 19a10.291 10.291 0 0 0 .421-2.948" style="stroke:#bdbec0;stroke-linecap:round;stroke-linejoin:round;stroke-width:1.25px;fill:none"></path><path class="c" d="M32.16 3.415c-.145 0-.283.028-.425.042v-.042a1.679 1.679 0 0 0-2.925-1.127 5.881 5.881 0 0 0-7.62 0 1.679 1.679 0 0 0-2.929 1.127v.042c-.142-.014-.28-.042-.425-.042a4.212 4.212 0 0 0 0 8.424c.019 0 .037-.006.057-.006a1.682 1.682 0 0 0 1.631 1.267 1.658 1.658 0 0 0 .382-.047 8.391 8.391 0 0 1 .132 1.441 13.06 13.06 0 0 1-.677 3.954l-.009.019a26.992 26.992 0 0 0 5.648.57 26.963 26.963 0 0 0 5.628-.564l-.016-.024a13.033 13.033 0 0 1-.677-3.953 8.65 8.65 0 0 1 .216-1.864 1.644 1.644 0 0 0 .325.049 1.677 1.677 0 0 0 1.463-.865c.075 0 .146.023.221.023a4.212 4.212 0 1 0 0-8.424z"></path></g></svg>