<svg xmlns="http://www.w3.org/2000/svg" viewBox="0 0 64 64"><g transform="matrix(1.28,0,0,1.28,0,0)"><defs><style>.e{fill:#ffe500}.f{fill:#f2c100}.c{fill:none}.c,.e,.f{stroke:#45413c;stroke-linecap:round;stroke-linejoin:round;stroke-width:1.25px}.g{fill:#45413c}</style></defs><path d="M42.793 24.48c.008-.219.033-.433.033-.654C42.826 13.981 34.845 6.5 25 6.5S7.174 13.981 7.174 23.826c0 .221.025.435.033.654a8.25 8.25 0 0 0-3.153 6.477C4.054 38.463 13.432 47 25 47s20.946-8.537 20.946-16.043a8.25 8.25 0 0 0-3.153-6.477z" style="fill:#ffe500"></path><path d="M4.292 28.964C5.751 35.906 14.454 43 25 43s19.25-7.1 20.707-14.041a8.26 8.26 0 0 1 .239 2C45.946 38.463 36.568 47 25 47S4.054 38.463 4.054 30.957a8.274 8.274 0 0 1 .238-1.993z" style="fill:#f2c100"></path><path class="c" d="M42.793 24.48c.008-.219.033-.433.033-.654C42.826 13.981 34.845 6.5 25 6.5S7.174 13.981 7.174 23.826c0 .221.025.435.033.654a8.25 8.25 0 0 0-3.153 6.477C4.054 38.463 13.432 47 25 47s20.946-8.537 20.946-16.043a8.25 8.25 0 0 0-3.153-6.477z"></path><ellipse cx="25" cy="9.5" rx="6" ry="2" style="fill:#fffacf"></ellipse><path class="e" d="M41.824 17.977c1.967-6.392 2.316-14.1.439-14.829-1.787-.688-7.163 1.057-10.971 4.43a17.265 17.265 0 0 1 10.532 10.399z"></path><path class="f" d="M40.623 15.353c1.043-4.259 1.114-8.765-.1-9.233-1.15-.444-4.352.5-6.988 2.434a17.273 17.273 0 0 1 7.088 6.799z"></path><path class="e" d="M8.08 18.252c-2.042-6.443-2.429-14.369-.524-15.1 1.794-.691 7.212 1.074 11.022 4.476A17.246 17.246 0 0 0 8.08 18.252z"></path><path class="f" d="M9.252 15.578C8.155 11.255 8.059 6.6 9.3 6.12c1.161-.448 4.414.523 7.064 2.49a17.248 17.248 0 0 0-7.112 6.968z"></path><ellipse class="g" cx="30.5" cy="21" rx="2" ry="3"></ellipse><ellipse class="g" cx="18.482" cy="21" rx="1.982" ry="3"></ellipse><path d="M27.754 27.1c0 1.1-1.432 2.4-3.2 2.4s-3.2-1.3-3.2-2.4 1.433-1.6 3.2-1.6 3.2.5 3.2 1.6z" style="fill:#bf8256;stroke:#45413c;stroke-linecap:round;stroke-linejoin:round;stroke-width:1.25px"></path><path class="c" d="M36.054 28a15.722 15.722 0 0 1 5.5 0m-5.5 2.5a9.7 9.7 0 0 1 5.5 1.5m-28-4a15.722 15.722 0 0 0-5.5 0m5.5 2.5a9.7 9.7 0 0 0-5.5 1.5M27.5 19c.5-2 3-3.5 5.5-4m-11.5 4c-.5-2-3-3.5-5.5-4m2.054 21a7.4 7.4 0 0 1 6.5-3.5 7.4 7.4 0 0 1 6.5 3.5"></path></g></svg>