<svg xmlns="http://www.w3.org/2000/svg" viewBox="0 0 64 64"><g transform="matrix(1.28,0,0,1.28,0,0)"><defs><style>.e{fill:none;stroke:#45413c;stroke-width:1.25px;stroke-linecap:round;stroke-linejoin:round}.f{fill:#525252}</style></defs><ellipse cx="25" cy="25" rx="23.5" ry="21.5" style="fill:#ffe500"></ellipse><path d="M25 42.5C11.7 42.5 2.594 33.933 1.6 23c-.06.659-.1 1.325-.1 2 0 11.874 9.4 21.5 23.5 21.5S48.5 36.874 48.5 25c0-.676-.039-1.342-.1-2-.994 10.933-10.1 19.5-23.4 19.5z" style="fill:#f2c100"></path><ellipse cx="25" cy="6.002" rx="6.5" ry="1.001" style="fill:#fffacf"></ellipse><ellipse cx="25" cy="25" rx="23.5" ry="21.5" style="stroke-miterlimit:10;fill:none;stroke:#45413c;stroke-width:1.25px"></ellipse><path class="e" d="M17.5 29.014a10.607 10.607 0 0 0 15 0"></path><path class="f" d="M45.5 10.723h-2.278c-4.555-2.278-10.629-2.278-15.944 0h-4.556c-5.315-2.278-11.389-2.278-15.944 0H4.5v3.291l2.309-.068c.095 3.158.5 6.932 2.247 8.1 2.277 1.519 10.629.759 12.148-.759.973-.973 1.328-5.514 1.455-7.77h4.682c.127 2.256.482 6.8 1.455 7.77 1.519 1.518 9.871 2.278 12.148.759 1.747-1.165 2.152-4.87 2.247-8.029H45.5z"></path><path class="e" d="M45.5 10.723h-2.278c-4.555-2.278-10.629-2.278-15.944 0h-4.556c-5.315-2.278-11.389-2.278-15.944 0H4.5v3.291l2.309-.068c.095 3.158.5 6.932 2.247 8.1 2.277 1.519 10.629.759 12.148-.759.973-.973 1.328-5.514 1.455-7.77h4.682c.127 2.256.482 6.8 1.455 7.77 1.519 1.518 9.871 2.278 12.148.759 1.747-1.165 2.152-4.87 2.247-8.029H45.5z"></path><path class="f" d="M30.315 13c0-.759 2.278-1.518 5.315-1.518s5.314.759 5.314 1.518 0 6.074-1.518 6.834-6.833.759-8.352-.76c-.759-.759-.759-3.796-.759-6.074zm-10.63 0c0-.759-2.278-1.518-5.315-1.518S9.056 12.241 9.056 13s0 6.074 1.518 6.834 6.833.759 8.352-.76c.759-.759.759-3.796.759-6.074z"></path><path d="M11.825 15.572c.956-2.007 2.95-2.311 4.823-2.311a15.213 15.213 0 0 1 3.036.285V13c0-.759-2.278-1.518-5.315-1.518S9.056 12.241 9.056 13s0 6.074 1.518 6.834a4.861 4.861 0 0 0 1.359.363 7.309 7.309 0 0 1-.108-4.625zm20.768-.294A4.816 4.816 0 0 1 37.148 13a13.746 13.746 0 0 1 3.793.474V13c0-.759-2.277-1.518-5.314-1.518s-5.315.759-5.315 1.518c0 2.278 0 5.315.759 6.074a3.23 3.23 0 0 0 1.109.66 5.582 5.582 0 0 1 .413-4.456z" style="fill:#87898c"></path></g></svg>