<svg xmlns="http://www.w3.org/2000/svg" viewBox="0 0 64 64"><g transform="matrix(1.28,0,0,1.28,0,0)"><defs><style>.d{fill:#45413c}.e,.f{fill:none;stroke:#45413c;stroke-linecap:round;stroke-linejoin:round;stroke-width:1.25px}.f{fill:#ff866e;stroke:#ffa694}</style></defs><ellipse cx="25" cy="25" rx="23.5" ry="21.5" style="fill:#6dd627"></ellipse><path d="M25 42.5C11.7 42.5 2.594 33.933 1.6 23c-.06.659-.1 1.325-.1 2 0 11.874 9.4 21.5 23.5 21.5S48.5 36.874 48.5 25c0-.676-.039-1.342-.1-2-.994 10.933-10.1 19.5-23.4 19.5z" style="fill:#46b000"></path><ellipse cx="25" cy="6.002" rx="6.5" ry="1.001" style="fill:#c8ffa1"></ellipse><circle class="d" cx="31.315" cy="16.772" r="1.75"></circle><circle class="d" cx="18.648" cy="16.772" r="1.75"></circle><path class="e" d="M13.009 14.558a7.356 7.356 0 0 0 4.307-3.079m19.342 3.043a7.356 7.356 0 0 1-4.358-3.006M30.2 26.5a4.52 4.52 0 0 1 4.52-4.52m-19.808 0a4.52 4.52 0 0 1 4.52 4.52"></path><path class="e" d="M30.994 23.583a13.331 13.331 0 0 0-6.161-1.419 13.321 13.321 0 0 0-6.161 1.42"></path><ellipse class="f" cx="10.289" cy="27.159" rx="3.766" ry="3.295"></ellipse><ellipse class="f" cx="39.711" cy="27.159" rx="3.766" ry="3.295"></ellipse><ellipse cx="25" cy="25" rx="23.5" ry="21.5" style="stroke-miterlimit:10;stroke-width:1.25px;fill:none;stroke:#45413c"></ellipse></g></svg>