<svg xmlns="http://www.w3.org/2000/svg" viewBox="0 0 64 64"><g transform="matrix(1.28,0,0,1.28,0,0)"><ellipse cx="25" cy="25" rx="23.5" ry="21.5" style="fill:#ffe500"></ellipse><path d="M25 42.5C11.7 42.5 2.594 33.933 1.6 23c-.06.659-.1 1.325-.1 2 0 11.874 9.4 21.5 23.5 21.5S48.5 36.874 48.5 25c0-.676-.039-1.342-.1-2-.994 10.933-10.1 19.5-23.4 19.5z" style="fill:#f2c100"></path><ellipse cx="25" cy="6.002" rx="6.5" ry="1.001" style="fill:#fffacf"></ellipse><ellipse cx="25" cy="25" rx="23.5" ry="21.5" style="stroke-miterlimit:10;stroke:#45413c;stroke-width:1.25px;fill:none"></ellipse><path d="M16.777 24.486h16.446a1.229 1.229 0 0 1 1.223 1.08c.275 2.248-.164 7.222-9.446 7.222s-9.721-4.974-9.446-7.222a1.229 1.229 0 0 1 1.223-1.08z" style="stroke-linecap:round;stroke-linejoin:round;fill:#ff6242;stroke:#45413c;stroke-width:1.25px"></path><path d="M34.249 28.176a6.717 6.717 0 0 0 .188-2.624 1.221 1.221 0 0 0-1.22-1.066H16.783a1.221 1.221 0 0 0-1.22 1.066 6.717 6.717 0 0 0 .188 2.624A42.213 42.213 0 0 1 25 27.253a42.213 42.213 0 0 1 9.249.923z" style="fill:#ffffff;stroke-linecap:round;stroke-linejoin:round;stroke:#45413c;stroke-width:1.25px"></path><path d="m34.224 16.09-4 2 4 2m-18.448-4 4 2-4 2" style="fill:none;stroke:#45413c;stroke-width:1.25px;stroke-linecap:round;stroke-linejoin:round"></path></g></svg>