<svg xmlns="http://www.w3.org/2000/svg" viewBox="0 0 64 64"><g transform="matrix(1.28,0,0,1.28,0,0)"><defs><style>.e{fill:none;stroke:#45413c;stroke-width:1.25px;stroke-linecap:round;stroke-linejoin:round}</style></defs><ellipse cx="25" cy="25" rx="23.5" ry="21.5" style="fill:#ffe500"></ellipse><path d="M25 42.5C11.7 42.5 2.594 33.933 1.6 23c-.06.659-.1 1.325-.1 2 0 11.874 9.4 21.5 23.5 21.5S48.5 36.874 48.5 25c0-.676-.039-1.342-.1-2-.994 10.933-10.1 19.5-23.4 19.5z" style="fill:#f2c100"></path><ellipse cx="25" cy="6.002" rx="6.5" ry="1.001" style="fill:#fffacf"></ellipse><ellipse cx="25" cy="25" rx="23.5" ry="21.5" style="stroke-miterlimit:10;stroke:#45413c;stroke-width:1.25px;fill:none"></ellipse><path class="e" d="M30.431 18.026s0-2.526 2.21-2.526 2.211 2.526 2.211 2.526m-20.211 0s0-2.526 2.211-2.526 2.211 2.526 2.211 2.526m-5.101 5.383s2.516 4.025 10.064 4.025 10.063-4.025 10.063-4.025"></path><path d="M37.041 27.551a23.018 23.018 0 0 0-3.314-3.681c-.82.938-3.156 3.026-7.881 3.472a23.767 23.767 0 0 0 2.974 6.012 5.031 5.031 0 1 0 8.221-5.8z" style="fill:#ff6242;stroke-linecap:round;stroke-linejoin:round;stroke:#45413c;stroke-width:1.25px"></path><path class="e" d="m30.063 26.428 2.868 4.025"></path></g></svg>