<svg xmlns="http://www.w3.org/2000/svg" viewBox="0 0 64 64"><g transform="matrix(1.28,0,0,1.28,0,0)"><defs><style>.f{fill:none;stroke:#45413c}.f,.g{stroke-width:1.25px}.e{fill:#45413c}.f,.g{stroke-linecap:round;stroke-linejoin:round}.g{fill:#ff6242;stroke:#ffa694}</style></defs><ellipse cx="25" cy="25" rx="23.5" ry="21.5" style="fill:#ffe500"></ellipse><path d="M25 42.5C11.7 42.5 2.594 33.933 1.6 23c-.06.659-.1 1.325-.1 2 0 11.874 9.4 21.5 23.5 21.5S48.5 36.874 48.5 25c0-.676-.039-1.342-.1-2-.994 10.933-10.1 19.5-23.4 19.5z" style="fill:#f2c100"></path><ellipse cx="25" cy="6.002" rx="6.5" ry="1.001" style="fill:#fffacf"></ellipse><ellipse cx="25" cy="25" rx="23.5" ry="21.5" style="stroke-width:1.25px;stroke-miterlimit:10;stroke:#45413c;fill:none"></ellipse><circle class="e" cx="31.583" cy="17.236" r="1.75"></circle><circle class="e" cx="18.417" cy="17.236" r="1.75"></circle><path class="f" d="M17.927 12.383a6.809 6.809 0 0 0-3.62 3.3m17.881-3.3a6.809 6.809 0 0 1 3.62 3.3"></path><ellipse class="g" cx="39.347" cy="23.85" rx="3.618" ry="2.895"></ellipse><ellipse class="g" cx="10.653" cy="23.85" rx="3.618" ry="2.895"></ellipse><path d="M45.98 8.075a2.768 2.768 0 0 0-3.852.7L30.913 24.932a13.492 13.492 0 0 1 5.059 2.421l10.7-15.425a2.77 2.77 0 0 0-.692-3.853z" style="fill:#e5feff;stroke-linecap:round;stroke-linejoin:round;stroke-width:1.25px;stroke:#45413c"></path><path d="m33.998 27.481.083.058.037-.054-.12-.004zm9.077-15.219a1.321 1.321 0 0 0-1.838.332l-8.879 12.793a14.241 14.241 0 0 1 2.43 1.133l8.619-12.42a1.321 1.321 0 0 0-.332-1.838z" style="fill:#ff6242"></path><path class="f" d="M36.2 27.539c-1.678-1.555-5.649-3.377-11.242-3.377a20.655 20.655 0 0 0-7.031 1.038"></path></g></svg>