<svg xmlns="http://www.w3.org/2000/svg" viewBox="0 0 64 64"><g transform="matrix(1.28,0,0,1.28,0,0)"><defs><style>.a{fill:#ffe500}.b{fill:#f2c100}.f{fill:none;stroke:#45413c;stroke-width:1.25px}.e{fill:#45413c}.f{stroke-linecap:round;stroke-linejoin:round}</style></defs><ellipse class="a" cx="25" cy="23.005" rx="23.5" ry="21.5"></ellipse><path class="b" d="M25 40.5C11.7 40.5 2.594 31.938 1.6 21c-.06.66-.1 1.326-.1 2 0 11.874 9.4 21.5 23.5 21.5S48.5 34.874 48.5 23c0-.675-.039-1.341-.1-2-.994 10.938-10.1 19.5-23.4 19.5z"></path><ellipse cx="25" cy="4.007" rx="6.5" ry="1.001" style="fill:#fffacf"></ellipse><ellipse cx="25" cy="23.005" rx="23.5" ry="21.5" style="stroke-miterlimit:10;stroke:#45413c;stroke-width:1.25px;fill:none"></ellipse><circle class="e" cx="32.575" cy="13.276" r="1.75"></circle><circle class="e" cx="17.992" cy="13.276" r="1.75"></circle><path class="b" d="M21.292 44.276a27.052 27.052 0 0 0 16.45-2.928v.006c.493-3.68.885-3.762.922-5.411.031-1.363-2.083-1.965-3.88-.526.034-2.8-.461-5.671-4.543-6.164a30.68 30.68 0 0 0 .3-7.152c-.224-3.512-4.554-4.212-5.228-.318a69.033 69.033 0 0 1-2.372 9.922c-1.595 2-2.187 5.051-2.268 8.635a10.215 10.215 0 0 0 .623 3.928"></path><path class="f" d="M20 20.876a6.872 6.872 0 0 0 5.077 1.839c3.468 0 4.923-1.839 4.923-1.839m-3.9 23.595a24.38 24.38 0 0 0 15.063-5.49"></path><path class="a" d="M18.914 33.456a67.467 67.467 0 0 0 3.408-12.91c.673-3.894 5-3.194 5.227.318a31.324 31.324 0 0 1-1.1 10.864"></path><path class="f" d="M18.914 33.456a67.467 67.467 0 0 0 3.408-12.91c.673-3.894 5-3.194 5.227.318a31.324 31.324 0 0 1-1.1 10.864"></path><path d="M31.8 34.181c.037-3.016-.54-6.123-5.57-6.236-6.545-.147-8.4 4.614-8.544 11.158s4.594 9.27 9.829 9.388c5.672.127 6.623-3.344 7.158-7.7s.97-4.344 1.009-6.089c.027-1.36-2.089-1.963-3.882-.521z" style="stroke-linecap:round;stroke-linejoin:round;stroke:#45413c;stroke-width:1.25px;fill:#ffe500"></path><path class="f" d="M23.273 41.348a7.182 7.182 0 0 1 3.2 1.3c2.612 2.458 5.115 1.2 5.115-.613 0-1.309.039-1.745.117-5.235.018-.809.086-1.711.1-2.621"></path><path class="f" d="M31.607 42.034a5.865 5.865 0 0 0-5.448-5.994m5.541.76a4.683 4.683 0 0 0-4.07-4.712"></path></g></svg>