<svg xmlns="http://www.w3.org/2000/svg" viewBox="0 0 64 64"><g transform="matrix(1.28,0,0,1.28,0,0)"><defs><style>.e{fill:none;stroke:#45413c;stroke-width:1.25px;stroke-linecap:round;stroke-linejoin:round}</style></defs><ellipse cx="26.062" cy="24.801" rx="22.921" ry="20.97" style="fill:#ffe500"></ellipse><path d="M26.062 41.867c-12.97 0-21.854-8.353-22.824-19.018-.059.644-.1 1.293-.1 1.952 0 11.581 9.169 20.97 22.921 20.97S48.983 36.382 48.983 24.8c0-.659-.038-1.308-.1-1.952-.967 10.666-9.851 19.019-22.821 19.019z" style="fill:#f2c100"></path><ellipse cx="26.062" cy="6.271" rx="6.34" ry=".976" style="fill:#fffacf"></ellipse><ellipse cx="26.062" cy="24.801" rx="22.921" ry="20.97" style="stroke-miterlimit:10;fill:none;stroke:#45413c;stroke-width:1.25px"></ellipse><path class="e" d="M34.6 22.651s-3.415 1.139-3.415 1.708 3.415 1.708 3.415 1.708m-17.076-3.416s3.415 1.139 3.415 1.708-3.415 1.708-3.415 1.708m18.204 8.57-1.054-1.7a.878.878 0 0 0-1.406 0l-1.23 1.64a.878.878 0 0 1-1.406 0L29.4 32.938a.878.878 0 0 0-1.406 0l-1.23 1.64a.878.878 0 0 1-1.406 0l-1.23-1.64a.878.878 0 0 0-1.406 0l-1.23 1.64a.878.878 0 0 1-1.406 0l-1.23-1.64a.878.878 0 0 0-1.406 0l-1.055 1.7"></path><path d="M10.679 42.47s-.391 2.171 2.95 3.542c3.221 1.323 7.652-5.851 11.113-17.083a.534.534 0 0 0-.742-.638 27.31 27.31 0 0 1-10.134 2.9A49.331 49.331 0 0 1 2.354 30.4a1.066 1.066 0 0 0-1.258.909C.9 32.914.9 35.8 3.174 36.882s2.866 3.906 3.014 5.468a1.069 1.069 0 0 0 1.215.969 14.442 14.442 0 0 0 8.9-4.748" style="fill:#ffffff"></path><path d="M24.29 28.24c-5.283 9.182-10.585 14.893-13.617 14.289-.034.339-.078 2.238 2.955 3.483 3.222 1.323 7.653-5.851 11.114-17.083a.535.535 0 0 0-.452-.689z" style="fill:#e5feff"></path><path class="e" d="M10.679 42.47s-.391 2.171 2.95 3.542c3.221 1.323 7.652-5.851 11.113-17.083a.534.534 0 0 0-.742-.638 27.31 27.31 0 0 1-10.134 2.9A49.331 49.331 0 0 1 2.354 30.4a1.066 1.066 0 0 0-1.258.909C.9 32.914.9 35.8 3.174 36.882s2.866 3.906 3.014 5.468a1.069 1.069 0 0 0 1.215.969 14.442 14.442 0 0 0 8.9-4.748"></path><path class="e" d="M11.174 36.69s3.155-.056 7.685-3.511"></path></g></svg>