<svg xmlns="http://www.w3.org/2000/svg" viewBox="0 0 64 64"><g transform="matrix(1.28,0,0,1.28,0,0)"><defs><style>.a{fill:#ffe500}.b{fill:#f2c100}.c{fill:#fffacf}.g{fill:none;stroke:#45413c;stroke-width:1.25px;stroke-linecap:round;stroke-linejoin:round}</style></defs><ellipse class="a" cx="25" cy="25" rx="23.5" ry="21.5"></ellipse><path class="b" d="m7.618 10.72-.894.354a20.419 20.419 0 0 0-3.9 6.477l4.042 2.423.321 5.126a2.64 2.64 0 0 0 4.372 1.826l3.872-3.374 4.974 1.277a2.658 2.658 0 0 0 .667.085 2.644 2.644 0 0 0 2.42-3.68l-2.013-4.724 2.752-4.337a2.607 2.607 0 0 0 .085-2.687 2.637 2.637 0 0 0-2.307-1.371c-.08 0-.16 0-.242.011l-5.116.454-2.415-2.921a21.991 21.991 0 0 0-6.444 4.3zm34.764 0 .894.354a20.419 20.419 0 0 1 3.9 6.477l-4.042 2.423-.321 5.126a2.64 2.64 0 0 1-4.372 1.826l-3.872-3.376-4.969 1.277a2.658 2.658 0 0 1-.667.085 2.644 2.644 0 0 1-2.42-3.68l2.013-4.724-2.752-4.337a2.607 2.607 0 0 1-.085-2.687 2.637 2.637 0 0 1 2.307-1.371c.08 0 .16 0 .242.011l5.116.454 2.415-2.919a21.991 21.991 0 0 1 6.444 4.3z"></path><path class="b" d="M25 42.5C11.7 42.5 2.594 33.933 1.6 23c-.06.659-.1 1.325-.1 2 0 11.874 9.4 21.5 23.5 21.5S48.5 36.874 48.5 25c0-.676-.039-1.342-.1-2-.994 10.933-10.1 19.5-23.4 19.5z"></path><ellipse class="c" cx="25" cy="6.002" rx="6.5" ry="1.001"></ellipse><ellipse cx="25" cy="25" rx="23.5" ry="21.5" style="stroke-miterlimit:10;stroke:#45413c;stroke-width:1.25px;fill:none"></ellipse><path d="M12.783 28.84a1.592 1.592 0 0 1 1.585-1.4h21.307a1.592 1.592 0 0 1 1.585 1.4c.357 2.913-.213 9.357-12.239 9.357s-12.595-6.444-12.238-9.357z" style="stroke-linecap:round;stroke-linejoin:round;fill:#ff6242;stroke:#45413c;stroke-width:1.25px"></path><path d="M37.005 32.221a8.687 8.687 0 0 0 .243-3.4 1.581 1.581 0 0 0-1.581-1.38H14.376a1.581 1.581 0 0 0-1.581 1.38 8.7 8.7 0 0 0 .242 3.4 54.742 54.742 0 0 1 11.984-1.195 54.73 54.73 0 0 1 11.984 1.195z" style="fill:#ffffff;stroke-linecap:round;stroke-linejoin:round;stroke:#45413c;stroke-width:1.25px"></path><path class="c" d="m14.92 22.2-4.268 3.72a1.643 1.643 0 0 1-2.718-1.135l-.356-5.65-4.856-2.91a1.641 1.641 0 0 1 .24-2.934l5.263-2.085 1.267-5.518a1.642 1.642 0 0 1 2.865-.679l3.609 4.362 5.639-.5a1.642 1.642 0 0 1 1.532 2.515l-3.037 4.78 2.218 5.208a1.642 1.642 0 0 1-1.918 2.234z"></path><path class="a" d="M9.575 19.01a2 2 0 0 0-.969-1.59L5.242 15.4a.5.5 0 0 1 .073-.894l3.646-1.445a2 2 0 0 0 1.213-1.412l.878-3.823a.5.5 0 0 1 .873-.206l2.5 3.022a2 2 0 0 0 1.541.725c.059 0 .118 0 .178-.008l3.906-.347a.5.5 0 0 1 .467.766l-2.1 3.313a2 2 0 0 0-.151 1.855l1.54 3.617a.5.5 0 0 1-.585.68l-3.8-.984a2 2 0 0 0-1.811.429l-2.961 2.582a.5.5 0 0 1-.828-.346z"></path><path class="g" d="m14.92 22.2-4.268 3.72a1.643 1.643 0 0 1-2.718-1.135l-.356-5.65-4.856-2.91a1.641 1.641 0 0 1 .24-2.934l5.263-2.085 1.267-5.518a1.642 1.642 0 0 1 2.865-.679l3.609 4.362 5.639-.5a1.642 1.642 0 0 1 1.532 2.515l-3.037 4.78 2.218 5.208a1.642 1.642 0 0 1-1.918 2.234z"></path><path class="c" d="m35.08 22.2 4.268 3.719a1.643 1.643 0 0 0 2.718-1.135l.356-5.65 4.856-2.91a1.641 1.641 0 0 0-.24-2.934l-5.263-2.085-1.267-5.517a1.642 1.642 0 0 0-2.865-.679l-3.609 4.362-5.639-.5a1.642 1.642 0 0 0-1.532 2.515l3.033 4.78-2.218 5.208a1.642 1.642 0 0 0 1.922 2.234z"></path><path class="a" d="M40.425 19.01a2 2 0 0 1 .969-1.59l3.364-2.02a.5.5 0 0 0-.073-.894l-3.646-1.445a2 2 0 0 1-1.213-1.412l-.878-3.819a.5.5 0 0 0-.873-.206l-2.5 3.022a2 2 0 0 1-1.541.725c-.059 0-.118 0-.178-.008l-3.906-.347a.5.5 0 0 0-.467.766l2.1 3.313a2 2 0 0 1 .151 1.855L30.2 20.567a.5.5 0 0 0 .585.68l3.8-.984a2 2 0 0 1 1.811.429l2.957 2.578a.5.5 0 0 0 .828-.346z"></path><path class="g" d="m35.08 22.2 4.268 3.719a1.643 1.643 0 0 0 2.718-1.135l.356-5.65 4.856-2.91a1.641 1.641 0 0 0-.24-2.934l-5.263-2.085-1.267-5.517a1.642 1.642 0 0 0-2.865-.679l-3.609 4.362-5.639-.5a1.642 1.642 0 0 0-1.532 2.515l3.033 4.78-2.218 5.208a1.642 1.642 0 0 0 1.922 2.234z"></path></g></svg>