<svg xmlns="http://www.w3.org/2000/svg" viewBox="0 0 64 64"><g transform="matrix(1.28,0,0,1.28,0,0)"><defs><style>.e{fill:#45413c}</style></defs><ellipse cx="25" cy="25" rx="23.5" ry="21.5" style="fill:#ffe500"></ellipse><path d="M25 42.5C11.7 42.5 2.594 33.933 1.6 23c-.06.659-.1 1.325-.1 2 0 11.874 9.4 21.5 23.5 21.5S48.5 36.874 48.5 25c0-.676-.039-1.342-.1-2-.994 10.933-10.1 19.5-23.4 19.5z" style="fill:#f2c100"></path><ellipse cx="25" cy="6.002" rx="6.5" ry="1.001" style="fill:#fffacf"></ellipse><ellipse cx="25" cy="25" rx="23.5" ry="21.5" style="stroke:#45413c;stroke-width:1.25px;fill:none;stroke-miterlimit:10"></ellipse><circle class="e" cx="31.5" cy="17.236" r="1.75"></circle><circle class="e" cx="18.5" cy="17.236" r="1.75"></circle><ellipse cx="25" cy="29.75" rx="4" ry="5" style="fill:#ff6242;stroke-linecap:round;stroke-linejoin:round;stroke:#45413c;stroke-width:1.25px"></ellipse></g></svg>