<svg xmlns="http://www.w3.org/2000/svg" viewBox="0 0 64 64"><g transform="matrix(1.28,0,0,1.28,0,0)"><defs><style>.e{fill:#45413c}</style></defs><ellipse cx="25" cy="25" rx="23.5" ry="21.5" style="fill:#ffe500"></ellipse><path d="M25 42.5C11.7 42.5 2.594 33.933 1.6 23c-.06.659-.1 1.325-.1 2 0 11.874 9.4 21.5 23.5 21.5S48.5 36.874 48.5 25c0-.676-.039-1.342-.1-2-.994 10.933-10.1 19.5-23.4 19.5z" style="fill:#f2c100"></path><ellipse cx="25" cy="6.002" rx="6.5" ry="1.001" style="fill:#fffacf"></ellipse><ellipse cx="25" cy="25" rx="23.5" ry="21.5" style="stroke-miterlimit:10;stroke:#45413c;stroke-width:1.25px;fill:none"></ellipse><ellipse class="e" cx="29.5" cy="16.848" rx="1.75" ry="2.333"></ellipse><circle class="e" cx="16.5" cy="17.264" r="1.75"></circle><path d="M16.283 27.608c3.053-.611 9.77 0 13.434 2.443m9.533-12.537v21.5c0 5 7.75 5 7.75 0v-6.156M19 13.014c-1.5.5-2.5-4-7-1.5" style="stroke-linecap:round;stroke-linejoin:round;fill:none;stroke:#45413c;stroke-width:1.25px"></path><path d="M38.625 14.543h-.831a8.009 8.009 0 1 0 0 3.712h.831a.625.625 0 0 0 .625-.625v-2.462a.625.625 0 0 0-.625-.625zM30.01 21.9a5.5 5.5 0 1 1 5.5-5.5 5.506 5.506 0 0 1-5.5 5.5z" style="fill:#ffffff;stroke-linecap:round;stroke-linejoin:round;stroke:#45413c;stroke-width:1.25px"></path></g></svg>