<svg xmlns="http://www.w3.org/2000/svg" viewBox="0 0 64 64"><g transform="matrix(1.28,0,0,1.28,0,0)"><defs><style>.a{fill:#ffe500}.b{fill:#f2c100}.e{fill:none;stroke:#45413c;stroke-width:1.25px;stroke-linecap:round;stroke-linejoin:round}</style></defs><ellipse class="a" cx="25" cy="25" rx="23.5" ry="21.5"></ellipse><path class="b" d="M25 42.5C11.7 42.5 2.594 33.933 1.6 23c-.06.659-.1 1.325-.1 2 0 11.874 9.4 21.5 23.5 21.5S48.5 36.874 48.5 25c0-.676-.039-1.342-.1-2-.994 10.933-10.1 19.5-23.4 19.5z"></path><ellipse cx="25" cy="6.002" rx="6.5" ry="1.001" style="fill:#fffacf"></ellipse><ellipse cx="25" cy="25" rx="23.5" ry="21.5" style="stroke-miterlimit:10;stroke:#45413c;stroke-width:1.25px;fill:none"></ellipse><path class="e" d="M30 17.316c2-1.5 5 0 5.5 1.5m-15-1.5c-2-1.5-5 0-5.5 1.5"></path><path d="M35.359 30.135c0 5.05-4.638 5.18-10.359 5.18s-10.359-.13-10.359-5.18S19.279 20.989 25 20.989s10.359 4.095 10.359 9.146z" style="fill:#ff6242;stroke-linecap:round;stroke-linejoin:round;stroke:#45413c;stroke-width:1.25px"></path><path class="e" d="M30.354 8.672c.94 1.612 2.222.508 4.476 1.348 2.34.872 2.654 2.22 2.654 2.22M19.722 8.672c-.94 1.612-2.222.508-4.476 1.348-2.34.872-2.654 2.22-2.654 2.22"></path><path class="a" d="M28.493 35.912c.24-1.4-1.66-2.984-3.813-3.34v-.005c2.249.173 3.2.1 3.216-1.388.011-1.4-3-2.721-5.293-2.074-2.406.678-5.5 3.7-5.5 3.7a8.065 8.065 0 0 1 1.163-4.229c1.269-2.009 3.754-1.8 4.018-3.436s-1.586-2.273-4.546-1.612c-1.467.328-3.168 1.909-4.754 3.857v-.008A2.214 2.214 0 0 0 9.127 26.3c-.9 1.163.581 3.965.329 6.214l.011-.016c-.214.361-.42.714-.6 1.044-2.009 3.595-3.307 9.023.951 11.366 3.172 1.744 7.841 1.956 9.569-.9 1.819-3.007 3.734-4.492 4.96-3.382s2.577 1.268 3.37.476.063-3.094-1.642-4.125c1.017.257 2.207.164 2.418-1.065z"></path><path class="e" d="M20.1 34.524s2.009-2.255 4.282-2.008c.132.015.264.034.395.058m-15.321-.058c.252-2.249-1.228-5.05-.329-6.213A2.214 2.214 0 0 1 13 27.377"></path><path class="b" d="M7.068 38.672a5.19 5.19 0 0 0 2.746 4c3.172 1.745 7.841 1.956 9.568-.9 1.82-3.007 3.735-4.492 4.961-3.382s2.582 1.267 3.374.467a2.1 2.1 0 0 1 0 2.244c-.793.793-2.144.635-3.37-.475s-3.141.375-4.961 3.382c-1.727 2.855-6.4 2.643-9.568.9-2.476-1.357-3.076-3.758-2.75-6.236z"></path><path class="e" d="M21.37 37.213a3.873 3.873 0 0 1 4.7-.232"></path><path class="e" d="M28.493 35.912c.24-1.4-1.66-2.984-3.813-3.34v-.005c2.249.173 3.2.1 3.216-1.388.011-1.4-3-2.721-5.293-2.074-2.406.678-5.5 3.7-5.5 3.7a8.065 8.065 0 0 1 1.163-4.229c1.269-2.009 3.754-1.8 4.018-3.436s-1.586-2.273-4.546-1.612c-1.467.328-3.168 1.909-4.754 3.857v-.008A2.214 2.214 0 0 0 9.127 26.3c-.9 1.163.581 3.965.329 6.214l.011-.016c-.214.361-.42.714-.6 1.044-2.009 3.595-3.307 9.023.951 11.366 3.172 1.744 7.841 1.956 9.569-.9 1.819-3.007 3.734-4.492 4.96-3.382s2.577 1.268 3.37.476.063-3.094-1.642-4.125c1.017.257 2.207.164 2.418-1.065zm-15.498-8.535-3.539 5.14"></path></g></svg>